Land_normalized_Motion_pl08
version=1
nRows=22
nColumns=43
inDegrees=yes
endheader
time		pelvis_tilt		pelvis_list		pelvis_rotation		pelvis_tx		pelvis_ty		pelvis_tz		hip_flexion_r		hip_adduction_r		hip_rotation_r		knee_angle_r		ankle_angle_r		subtalar_angle_r		mtp_angle_r		hip_flexion_l		hip_adduction_l		hip_rotation_l		knee_angle_l		ankle_angle_l		subtalar_angle_l		mtp_angle_l		lumbar_extension		lumbar_bending		lumbar_rotation		neck_flexion		neck_lateral_bending		neck_rotation		arm_flex_r		arm_add_r		arm_rot_r		elbow_flex_r		pro_sup_r		wrist_flex_r		wrist_dev_r		hand_finger_flex_r		arm_flex_l		arm_add_l		arm_rot_l		elbow_flex_l		pro_sup_l		wrist_flex_l		wrist_dev_l		hand_finger_flex_l		
2.298889		-1.818480		1.281102		92.180965		-0.024027		0.656985		0.494123		57.184042		-9.275952		-5.640411		-87.595422		24.952010		-8.266634		11.065655		56.834700		-4.847259		-3.517632		-88.551705		24.735610		4.075349		16.122886		-26.290710		-4.891979		-5.155126		-10.252009		4.813673		1.251849		-24.783659		-22.135949		-24.795870		55.998857		109.005439		-15.586847		-17.406391		-36.101755		-24.942184		-20.693506		-24.349843		70.246027		123.556797		-29.937539		-15.089906		-12.481915		
2.301944		-1.966713		1.583549		92.023235		-0.023805		0.648948		0.493446		58.102807		-8.975137		-4.888439		-89.587892		25.355533		-8.436386		10.890149		57.979235		-4.680432		-3.274204		-90.889455		24.371304		3.794979		16.257857		-27.393823		-5.093389		-5.237966		-9.162671		4.826107		1.326309		-22.023042		-22.046953		-24.440065		55.466537		108.919876		-15.609377		-17.269150		-36.169872		-22.070950		-20.947817		-23.892733		69.584233		123.845475		-29.840689		-14.824080		-12.460308		
2.305000		-2.318851		2.022766		91.616057		-0.023154		0.641467		0.492856		58.951398		-8.521688		-3.792051		-91.542879		25.449183		-8.703495		10.385045		58.854780		-4.651755		-3.493279		-93.080479		23.415037		2.702061		16.898430		-28.738053		-5.616418		-5.025838		-7.639347		4.939896		1.103418		-19.420065		-21.834295		-24.097208		54.960206		108.797398		-16.159792		-17.611074		-36.580825		-19.028020		-21.298361		-23.257611		68.897117		125.125197		-30.269597		-14.445903		-12.492457		
2.308056		-2.389268		2.457364		91.394763		-0.022669		0.634218		0.492287		59.693105		-8.057071		-3.054408		-93.382090		25.496720		-8.860260		10.178511		59.763704		-4.681234		-3.298746		-95.205797		22.748932		2.461780		17.290709		-30.071737		-5.775762		-4.991178		-6.171502		4.984081		1.136914		-16.816811		-21.702459		-23.721154		54.726349		108.713676		-16.145318		-17.549129		-36.654224		-16.216778		-21.585014		-22.792844		68.511483		125.726921		-30.089287		-14.078083		-12.354622		
2.311111		-2.488836		3.022436		91.076395		-0.022146		0.627475		0.491668		60.296472		-7.430298		-2.215713		-95.186381		25.371119		-9.166679		9.799344		60.403074		-4.719645		-3.200249		-97.191816		22.102571		1.881125		18.064321		-31.572847		-5.996963		-4.806136		-4.648492		5.023215		0.963596		-14.325061		-21.542425		-23.436830		54.585897		108.566805		-16.334248		-17.650656		-36.848677		-13.346270		-21.812381		-22.285117		68.204766		126.855787		-30.077015		-13.558134		-12.189316		
2.314167		-2.461692		3.563732		90.834775		-0.021616		0.620906		0.491081		60.885746		-6.838715		-1.575356		-96.931389		25.122841		-9.436312		9.520262		61.056828		-4.831389		-2.939939		-99.088242		21.562276		1.620220		18.784663		-33.057167		-6.078659		-4.643734		-3.079078		5.052461		0.782453		-11.895644		-21.388026		-23.128597		54.598448		108.429354		-16.428107		-17.676205		-36.931594		-10.557271		-22.046255		-21.766129		68.038529		127.842567		-29.962148		-13.055614		-12.067366		
2.317222		-2.414134		3.963675		90.721194		-0.021231		0.614319		0.490448		61.604543		-6.370959		-1.022710		-98.656606		24.884968		-9.506284		9.378580		61.820289		-4.854798		-2.587128		-100.863020		21.232285		1.574603		19.207104		-34.347473		-6.093442		-4.640554		-1.755740		5.047169		0.726281		-9.451856		-21.268458		-22.678609		54.595867		108.375329		-16.328453		-17.619907		-36.909947		-7.898045		-22.313493		-21.250536		67.928067		128.415680		-29.737981		-12.740596		-11.970492		
2.320278		-2.257366		4.529145		90.533817		-0.020714		0.608264		0.489845		62.150129		-5.847117		-0.648595		-100.341826		24.312100		-9.668766		9.237208		62.361222		-5.058099		-2.171681		-102.563016		20.796185		1.688325		20.106162		-35.885665		-6.055011		-4.409532		-0.034057		5.127729		0.340856		-7.164833		-21.105739		-22.353746		54.823617		108.256398		-16.476399		-17.688089		-36.923162		-5.178828		-22.544267		-20.582414		67.984619		129.483971		-29.775210		-12.133124		-11.985087		
2.323333		-2.174927		4.798270		90.519688		-0.020561		0.601943		0.489132		63.007226		-5.564888		-0.252045		-102.024570		23.877903		-9.447163		9.249924		63.178796		-5.046420		-1.726101		-104.138549		20.566526		1.908000		20.267559		-36.990505		-5.994148		-4.530495		1.109288		5.156460		0.330607		-4.723885		-21.033018		-21.707191		54.860506		108.329927		-16.200844		-17.593112		-36.807169		-2.688744		-22.817900		-20.008230		67.980516		129.679702		-29.505284		-12.013423		-11.929421		
2.326389		-2.056648		5.086838		90.505602		-0.020408		0.595869		0.488430		63.845936		-5.309027		0.076091		-103.674841		23.251511		-9.163893		9.291820		63.948268		-5.090354		-1.265633		-105.650038		20.266812		2.239944		20.451029		-38.132672		-5.911747		-4.608142		2.377462		5.239909		0.206995		-2.331188		-20.935511		-21.063546		54.977502		108.449249		-15.998671		-17.547083		-36.727902		-0.212274		-23.051924		-19.409405		68.065625		129.904354		-29.367075		-11.867105		-11.928350		
2.329444		-1.916385		5.374533		90.514835		-0.020336		0.590037		0.487717		64.665319		-5.085085		0.366973		-105.265839		22.564157		-8.839784		9.372407		64.688021		-5.133655		-0.771971		-107.089341		19.980371		2.653325		20.646338		-39.253716		-5.793070		-4.687764		3.570234		5.326588		0.053380		0.040299		-20.846397		-20.372204		55.132243		108.631627		-15.807975		-17.513632		-36.669190		2.258726		-23.262111		-18.754693		68.172099		130.118859		-29.303733		-11.696243		-11.948596		
2.332500		-1.482600		5.835147		90.662261		-0.020186		0.584678		0.486988		65.186348		-4.851770		0.244295		-106.757111		21.719567		-8.548576		10.139800		65.293397		-5.295910		0.106551		-108.523718		19.766482		3.758368		21.827473		-40.577142		-5.339561		-4.540376		4.904875		5.419250		-0.392064		2.211087		-20.744621		-19.824853		55.511782		109.275697		-16.028927		-17.403208		-36.930834		4.894375		-23.495279		-17.552531		68.300612		130.709052		-30.277490		-10.783747		-12.118278		
2.335556		-1.381296		6.011490		90.730615		-0.020229		0.579157		0.486307		66.072651		-4.709982		0.563818		-108.207206		21.049538		-8.157242		10.281291		66.054616		-5.268726		0.558147		-109.783128		19.500922		4.028545		22.026859		-41.492036		-5.209884		-4.699110		5.704915		5.460721		-0.373284		4.581831		-20.713075		-18.946043		55.670640		109.521599		-15.615921		-17.305918		-36.819294		7.342221		-23.671022		-16.902084		68.354210		130.813895		-30.035675		-10.736087		-11.980484		
2.338611		-1.251829		6.166606		90.836266		-0.020351		0.573710		0.485654		66.975870		-4.634446		0.813251		-109.619496		20.302963		-7.664765		10.446342		66.817737		-5.206986		1.070935		-110.998021		19.248289		4.477268		22.246416		-42.367132		-5.022240		-4.876491		6.501245		5.531017		-0.381168		6.912086		-20.662875		-18.067786		55.936652		109.842668		-15.288341		-17.210528		-36.769421		9.734062		-23.827037		-16.227617		68.453258		130.897033		-29.944618		-10.627574		-11.891171		
2.341667		-0.912596		6.282116		91.059327		-0.020496		0.568167		0.484962		67.872145		-4.595178		0.775589		-110.960152		19.232682		-7.300427		13.215505		67.691209		-5.158108		1.874275		-112.203656		18.823725		5.160110		25.418992		-43.156585		-4.569291		-4.920576		7.181530		5.557534		-0.459379		9.065151		-20.576321		-17.515308		56.504590		111.331720		-14.612403		-16.515864		-37.685293		12.211924		-24.065503		-14.967946		68.478556		130.893302		-31.496962		-10.027301		-10.201997		
2.344722		-0.732178		6.348665		91.223516		-0.020540		0.562807		0.484421		68.796046		-4.598177		0.883784		-112.226111		18.561845		-6.912885		14.601514		68.486965		-5.098001		2.419465		-113.274877		18.688116		5.637065		27.012591		-43.873629		-4.293732		-5.063318		7.775780		5.562356		-0.445620		11.237711		-20.551207		-16.652955		56.993241		112.094503		-14.027021		-16.253604		-38.046016		14.640307		-24.302777		-14.009495		68.518581		130.919089		-32.011835		-9.746230		-9.267574		
2.347778		-0.622908		6.341072		91.392400		-0.020670		0.557393		0.483862		69.822697		-4.681460		1.060411		-113.488467		17.921385		-6.229017		14.721045		69.297827		-4.982350		2.854206		-114.301745		18.699943		6.160204		27.153757		-44.464258		-4.087211		-5.242834		8.231847		5.593163		-0.396565		13.373233		-20.603017		-15.558302		57.420691		112.247433		-13.632359		-16.221703		-37.922153		16.982821		-24.546619		-13.146343		68.698130		130.892182		-31.770598		-9.576912		-9.133885		
2.350833		-0.436886		6.140955		91.608600		-0.020849		0.551454		0.483239		71.063006		-4.832327		1.121283		-114.760310		17.394153		-5.297616		15.111692		70.360898		-4.832089		3.413619		-115.353327		18.819373		6.947280		27.523128		-44.761764		-3.771495		-5.353286		8.432578		5.612843		-0.412819		15.324129		-20.686745		-14.473545		58.046710		112.349725		-13.351063		-15.974828		-37.853933		19.271925		-24.863330		-11.924917		68.915533		130.563736		-31.882485		-8.961468		-8.969851		
2.353889		-0.331639		6.112798		91.647878		-0.020850		0.546310		0.482825		72.052739		-4.854602		1.260368		-115.859706		16.827085		-4.874869		15.220893		71.091003		-4.819533		3.701416		-116.260185		18.904983		7.106497		27.631058		-45.305908		-3.635766		-5.403272		8.766276		5.616779		-0.376360		17.392582		-20.836585		-13.319282		58.568789		112.579066		-12.886449		-16.022683		-37.654934		21.630002		-25.166429		-10.913910		69.073604		130.548336		-31.504818		-8.853885		-8.805531		
2.356944		-0.205057		5.795549		91.736121		-0.020707		0.540205		0.482235		73.440427		-4.908750		1.392055		-117.049691		16.242882		-4.161240		15.996233		72.242860		-4.773631		4.065992		-117.265965		18.996317		7.477285		28.135804		-45.396447		-3.510329		-5.221319		8.786899		5.675340		-0.641498		18.989218		-21.095827		-12.342454		59.425060		112.624599		-12.568671		-15.831323		-37.444464		24.183237		-25.565731		-8.972928		69.151669		129.814120		-31.795485		-8.001992		-8.633831		
2.360000		-0.113876		5.706119		91.769236		-0.020610		0.534979		0.481832		74.497403		-4.973630		1.495788		-118.087121		15.662225		-3.718202		16.312215		73.037250		-4.775072		4.288442		-118.141588		19.123399		7.573325		28.345677		-45.783547		-3.411537		-5.179571		8.962255		5.685031		-0.673602		20.924121		-21.298128		-11.209057		59.990965		112.810131		-12.119251		-15.872903		-37.233072		26.645055		-25.844040		-7.681089		69.236619		129.631691		-31.523371		-7.759471		-8.434174		
2.363056		-0.074138		5.502494		91.825359		-0.020557		0.529354		0.481236		75.746097		-5.085298		1.685539		-119.223476		14.877152		-3.055809		16.828144		73.976205		-4.695913		4.477643		-119.080382		19.198098		7.592982		28.586242		-45.940856		-3.379953		-5.000770		8.690123		5.830464		-0.884067		22.556856		-21.668683		-10.147424		60.679982		112.890201		-11.772718		-15.987579		-37.147888		29.264609		-26.111099		-5.818784		69.193081		129.206002		-31.380504		-7.081355		-8.290018		
